<svg t="1590922907787" class="icon" viewBox="0 0 1024 1024" version="1.1" xmlns="http://www.w3.org/2000/svg" p-id="3122" width="16" height="16"><path d="M112 306.5v394.2s5.9 42.9 19.4 56.4c13.5 13.5 38.6 27.6 38.6 27.6l277.2 75.7s24.7 7.3 31.3 4.2c6.5-3.1 4.6-12.5 4.6-12.5V407.8L112 306.5z m0 0M910.9 306.5l-117.7 32.1v171.2l-77.6 21v-171l-177.2 48.4v407.7s-1.1 40.8 4.1 48.1c5.2 7.4 31-3 31-3l249.1-68s52.6-13.8 71.9-33.1c19.3-19.3 16.5-100.6 16.5-100.6V306.5z m0 0M909.6 265.4L532.7 161.1s-16.3-3.9-21.9-3.9c-5.6 0-22.5 4.2-22.5 4.2L372 193.5l401.8 108.6 135.8-36.7z m0 0M111.9 265.4l398.7 107.8 156.9-42.4L267 222.5l-155.1 42.9z m0 0" p-id="3123" fill="currentColor"></path></svg>
