<?xml version="1.0" standalone="no"?><!DOCTYPE svg PUBLIC "-//W3C//DTD SVG 1.1//EN" "http://www.w3.org/Graphics/SVG/1.1/DTD/svg11.dtd"><svg
  t="1590923448478" class="icon" viewBox="0 0 1024 1024" version="1.1" xmlns="http://www.w3.org/2000/svg" p-id="4641"
  xmlns:xlink="http://www.w3.org/1999/xlink" width="16" height="16"><defs><style type="text/css"></style></defs><path
  d="M153.694815 927.288889H82.488889c-15.739259 0-28.444444-12.705185-28.444445-28.444445V140.041481c0-15.739259 12.705185-28.444444 28.444445-28.444444h71.205926c15.739259 0 28.444444 12.705185 28.444444 28.444444V898.844444c0 15.739259-12.705185 28.444444-28.444444 28.444445zM110.933333 870.4h14.317037V168.485926H110.933333V870.4zM938.666667 927.288889h-71.205926c-15.739259 0-28.444444-12.705185-28.444445-28.444445V140.041481c0-15.739259 12.705185-28.444444 28.444445-28.444444H938.666667c15.739259 0 28.444444 12.705185 28.444444 28.444444V898.844444c0 15.739259-12.705185 28.444444-28.444444 28.444445z m-42.761482-56.888889H910.222222V168.485926h-14.317037V870.4z" fill="currentColor" p-id="4642"></path><path d="M867.460741 478.814815H153.694815c-15.739259 0-28.444444-12.705185-28.444445-28.444445v-72.817777c0-15.739259 12.705185-28.444444 28.444445-28.444445h713.671111c15.739259 0 28.444444 12.705185 28.444444 28.444445V450.37037c0.094815 15.739259-12.705185 28.444444-28.349629 28.444445z m-685.321482-56.888889h656.782222v-15.928889H182.139259V421.925926zM867.460741 866.607407H153.694815c-15.739259 0-28.444444-12.705185-28.444445-28.444444v-72.817778c0-15.739259 12.705185-28.444444 28.444445-28.444444h713.671111c15.739259 0 28.444444 12.705185 28.444444 28.444444V838.162963c0.094815 15.739259-12.705185 28.444444-28.349629 28.444444z m-685.321482-56.888888h656.782222v-15.928889H182.139259V809.718519z" fill="currentColor" p-id="4643"></path><path d="M786.204444 400.308148H238.743704c-12.61037 0-22.755556-10.145185-22.755556-22.755555V140.041481c0-12.61037 10.145185-22.755556 22.755556-22.755555h547.46074c12.61037 0 22.755556 10.145185 22.755556 22.755555v237.511112c0 12.515556-10.24 22.755556-22.755556 22.755555z m-524.705185-45.511111h501.94963V162.797037H261.499259v192z" fill="currentColor" p-id="4644"></path><path d="M418.607407 274.014815H324.266667c-12.61037 0-22.755556-10.145185-22.755556-22.755556V140.041481c0-12.61037 10.145185-22.755556 22.755556-22.755555h94.34074c12.61037 0 22.755556 10.145185 22.755556 22.755555V251.259259c0 12.61037-10.24 22.755556-22.755556 22.755556z m-71.68-45.511111h48.82963v-65.706667h-48.82963V228.503704zM697.837037 274.014815h-94.340741c-12.61037 0-22.755556-10.145185-22.755555-22.755556V140.041481c0-12.61037 10.145185-22.755556 22.755555-22.755555H697.837037c12.61037 0 22.755556 10.145185 22.755556 22.755555V251.259259c0 12.61037-10.145185 22.755556-22.755556 22.755556z m-71.585185-45.511111H675.081481v-65.706667h-48.829629V228.503704zM511.241481 394.05037c-12.61037 0-22.755556-10.145185-22.755555-22.755555V143.834074c0-12.61037 10.145185-22.755556 22.755555-22.755555s22.755556 10.145185 22.755556 22.755555v227.460741c0 12.515556-10.24 22.755556-22.755556 22.755555zM786.204444 785.256296H238.743704c-12.61037 0-22.755556-10.145185-22.755556-22.755555V524.98963c0-12.61037 10.145185-22.755556 22.755556-22.755556h547.46074c12.61037 0 22.755556 10.145185 22.755556 22.755556v237.511111c0 12.61037-10.24 22.755556-22.755556 22.755555z m-524.705185-45.511111h501.94963V547.745185H261.499259v192z" fill="currentColor" p-id="4645"></path><path d="M418.607407 659.057778H324.266667c-12.61037 0-22.755556-10.145185-22.755556-22.755556V524.98963c0-12.61037 10.145185-22.755556 22.755556-22.755556h94.34074c12.61037 0 22.755556 10.145185 22.755556 22.755556V636.207407c0 12.61037-10.24 22.85037-22.755556 22.850371z m-71.68-45.511111h48.82963v-65.706667h-48.82963v65.706667zM697.837037 659.057778h-94.340741c-12.61037 0-22.755556-10.145185-22.755555-22.755556V524.98963c0-12.61037 10.145185-22.755556 22.755555-22.755556H697.837037c12.61037 0 22.755556 10.145185 22.755556 22.755556V636.207407c0 12.61037-10.145185 22.85037-22.755556 22.850371z m-71.585185-45.511111H675.081481v-65.706667h-48.829629v65.706667zM511.241481 778.998519c-12.61037 0-22.755556-10.145185-22.755555-22.755556V528.782222c0-12.61037 10.145185-22.755556 22.755555-22.755555s22.755556 10.145185 22.755556 22.755555v227.460741c0 12.61037-10.24 22.755556-22.755556 22.755556z" fill="currentColor" p-id="4646"></path></svg>
